<svg width="100" height="100" viewBox="0 0 100 100" fill="none" xmlns="http://www.w3.org/2000/svg">
<path d="M48.4043 97.482L19.9073 89.5961C17.4972 88.9291 15.7535 86.8373 15.5313 84.3464L8.76905 8.53306C8.45596 5.02286 11.2212 2 14.7453 2H85.2637C88.7878 2 91.5531 5.02286 91.24 8.53306L84.4778 84.3464C84.2556 86.8373 82.5118 88.9291 80.1017 89.5961L51.6048 97.482L52.1382 99.4096L51.6048 97.482C50.5576 97.7718 49.4514 97.7718 48.4043 97.482L47.8709 99.4096L48.4043 97.482Z" fill="white" stroke="black" stroke-width="4"/>
<path d="M49.6916 80.8411L27.0281 74.299L25.6262 57.4766H36.3739L37.3084 65.8878L49.6916 69.6261L62.0748 65.8878L63.4767 51.4018H25.12L24.2243 40.6542H64.4112L65.3458 28.9719H23.2508L22.3552 18.2243H77.0281L72.3552 74.299L49.6916 80.8411Z" fill="black"/>
</svg>
