<svg width="100" height="100" viewBox="0 0 100 100" fill="none" xmlns="http://www.w3.org/2000/svg">
<path d="M48.4043 97.482L19.9073 89.5961C17.4972 88.9291 15.7535 86.8373 15.5313 84.3464L8.76905 8.53306C8.45596 5.02286 11.2212 2 14.7453 2H85.2637C88.7878 2 91.5531 5.02286 91.24 8.53306L84.4778 84.3464C84.2556 86.8373 82.5118 88.9291 80.1017 89.5961L51.6048 97.482L52.1382 99.4096L51.6048 97.482C50.5576 97.7718 49.4514 97.7718 48.4043 97.482L47.8709 99.4096L48.4043 97.482Z" fill="white" stroke="black" stroke-width="4"/>
<path d="M77.6063 18.552H22.629L25.3439 51.81H63.5792L62.448 66.0633L50.0045 69.457L37.5611 66.0633L36.8824 57.4661H25.8326L27.3801 74.6606L50.0045 80.9955L72.629 74.6606L75.5701 40.724H35.2987L34.3937 29.4118H76.7014L77.6063 18.552Z" fill="black"/>
</svg>
