<svg width="100" height="100" viewBox="0 0 100 100" fill="none" xmlns="http://www.w3.org/2000/svg">
<path d="M50.0008 32.1672C61.5229 32.1672 72.2267 33.8205 80.2974 36.5989C90.0213 39.9466 96 45.0209 96 49.6157C96 54.4037 89.6638 59.7945 79.2215 63.2542C71.3269 65.8698 60.9382 67.2352 50.0008 67.2352C38.7869 67.2352 28.1679 65.9536 20.1843 63.2255C10.0837 59.7731 4 54.3126 4 49.6157C4 45.0582 9.7084 40.0231 19.2957 36.6805C27.3964 33.8562 38.3645 32.1672 49.9992 32.1672H50.0008Z" stroke="black" stroke-width="8"/>
<path d="M34.8113 40.9417C40.5676 30.9605 47.3469 22.514 53.7857 16.9107C61.5435 10.1595 68.9261 7.51549 72.9062 9.81066C77.0542 12.2026 78.5585 20.3848 76.3389 31.1587C74.6625 39.3045 70.6538 48.9856 65.1897 58.4605C59.5874 68.1749 53.1725 76.7336 46.8214 82.2849C38.7848 89.3102 31.0151 91.8525 26.9463 89.506C22.9982 87.2309 21.4884 79.7691 23.3824 69.7938C24.9827 61.3655 28.9988 51.0204 34.8094 40.9415L34.8113 40.9417Z" stroke="black" stroke-width="8"/>
<path d="M34.8257 58.486C29.0531 48.5161 25.123 38.4225 23.4825 30.0458C21.5077 19.953 22.9039 12.2364 26.8805 9.93452C31.0243 7.53552 38.8643 10.3184 47.0899 17.6221C53.3091 23.1441 59.6953 31.4504 65.1753 40.9164C70.7937 50.6214 75.0047 60.4536 76.6428 68.7283C78.7155 79.1996 77.0379 87.2005 72.9729 89.5536C69.0287 91.837 61.811 89.4195 54.1148 82.7966C47.6122 77.2011 40.6552 68.5552 34.8257 58.486Z" stroke="black" stroke-width="8"/>
<path d="M50.0008 32.1672C61.5229 32.1672 72.2267 33.8205 80.2974 36.5989C90.0213 39.9467 96 45.0209 96 49.6157C96 54.4038 89.6638 59.7945 79.2215 63.2543C71.3269 65.8698 60.9382 67.2353 50.0008 67.2353C38.7868 67.2353 28.1679 65.9537 20.1843 63.2255C10.0837 59.7731 4 54.3126 4 49.6157C4 45.0582 9.7084 40.0231 19.2957 36.6805C27.3964 33.8563 38.3645 32.1672 49.9992 32.1672H50.0008Z" stroke="white" stroke-width="2.73408"/>
<path d="M34.8113 40.9417C40.5676 30.9605 47.3469 22.514 53.7857 16.9107C61.5435 10.1595 68.9261 7.51549 72.9062 9.81066C77.0542 12.2026 78.5585 20.3848 76.3389 31.1587C74.6625 39.3045 70.6538 48.9856 65.1897 58.4605C59.5874 68.1749 53.1725 76.7336 46.8214 82.2849C38.7848 89.3102 31.0151 91.8525 26.9463 89.506C22.9982 87.2309 21.4884 79.7691 23.3824 69.7938C24.9827 61.3655 28.9988 51.0204 34.8094 40.9415L34.8113 40.9417Z" stroke="white" stroke-width="2.73408"/>
<path d="M34.8257 58.486C29.0532 48.5161 25.123 38.4225 23.4825 30.0458C21.5077 19.9531 22.9039 12.2364 26.8805 9.93455C31.0243 7.53555 38.8644 10.3184 47.09 17.6222C53.3092 23.1441 59.6953 31.4504 65.1753 40.9164C70.7938 50.6214 75.0047 60.4536 76.6428 68.7283C78.7156 79.1996 77.0379 87.2005 72.9729 89.5536C69.0287 91.837 61.811 89.4195 54.1149 82.7966C47.6122 77.2011 40.6552 68.555 34.8257 58.4859V58.486Z" stroke="white" stroke-width="2.73408"/>
<path d="M50.0006 58.1975C54.7402 58.1975 58.5823 54.3553 58.5823 49.6157C58.5823 44.8761 54.7402 41.0339 50.0006 41.0339C45.261 41.0339 41.4188 44.8761 41.4188 49.6157C41.4188 54.3553 45.261 58.1975 50.0006 58.1975Z" fill="white" stroke="black" stroke-width="3"/>
</svg>
