<svg width="100" height="100" viewBox="0 0 100 100" fill="none" xmlns="http://www.w3.org/2000/svg">
<path d="M9.76562 2H90.2344C94.5232 2 98 5.47679 98 9.76562V90.2344C98 94.5232 94.5232 98 90.2344 98H9.76562C5.47679 98 2 94.5232 2 90.2344V9.76562C2 5.47679 5.47679 2 9.76562 2Z" fill="white" stroke="black" stroke-width="4"/>
<path fill-rule="evenodd" clip-rule="evenodd" d="M59.9172 77.4972V87.2628C61.4992 88.0831 63.4328 88.6886 65.5813 89.0988C67.7297 89.5089 70.0734 89.7042 72.4172 89.7042C74.7609 89.7042 76.9094 89.4894 79.0578 89.0402C81.2063 88.5909 82.9641 87.8488 84.5266 86.8917C86.1086 85.8566 87.4563 84.548 88.2375 82.7902C89.0188 81.0323 89.6242 79.0792 89.6242 76.5402C89.6242 74.7628 89.3508 73.2198 88.8234 71.8527C88.2961 70.4855 87.5344 69.3136 86.4797 68.337C85.4836 67.3019 84.3313 66.3839 82.9641 65.6027C81.5969 64.8214 80.0344 64.0011 78.2766 63.2589C76.9875 62.7316 75.9328 62.2238 74.7609 61.7159C73.7453 61.2081 72.8664 60.7003 72.2219 60.1925C71.4992 59.6652 70.9523 59.1183 70.5617 58.5519C70.1711 57.9659 69.9758 57.3214 69.9758 56.5988C69.9758 55.9347 70.1496 55.3292 70.5031 54.7824C70.8566 54.2355 71.343 53.7863 71.968 53.3956C72.593 53.005 73.3742 52.712 74.3117 52.4972C75.2297 52.2823 76.2453 52.1847 77.4367 52.1847C78.257 52.1847 79.1164 52.2452 79.9758 52.3683C80.8742 52.4913 81.7922 52.6808 82.7102 52.9347C83.6281 53.1886 84.5266 53.5011 85.4445 53.8917C86.3039 54.2824 87.1047 54.7316 87.7883 55.2394V46.0597C86.3039 45.4933 84.6633 45.0636 82.9055 44.7902C81.1477 44.5167 79.1945 44.38 76.8508 44.38C74.507 44.38 72.3586 44.6339 70.2102 45.1222C68.0617 45.6105 66.3039 46.3917 64.7414 47.4659C63.1594 48.5206 62.007 49.8097 61.0305 51.5675C60.1125 53.2081 59.6633 55.0831 59.6633 57.4269C59.6633 60.3566 60.5031 62.8956 62.2023 64.8488C63.882 66.9972 66.4992 68.5597 69.8195 70.1222C71.1672 70.6691 72.3586 71.2159 73.5305 71.7433C74.7023 72.2706 75.6789 72.8175 76.4602 73.3839C77.3 73.9503 77.9641 74.5753 78.4133 75.2394C78.9016 75.9034 79.1555 76.6847 79.1555 77.5831C79.1555 78.2081 79.0031 78.7941 78.7063 79.3409C78.4094 79.8878 77.9445 80.3566 77.3195 80.7472C76.6945 81.1378 75.9328 81.4503 74.9758 81.6847C74.0578 81.8995 73.0227 82.0167 71.6555 82.0167C69.507 82.0167 67.3586 81.6456 65.4055 80.9034C63.257 80.1613 61.3039 79.048 59.5461 77.5831L59.9172 77.4972ZM43.5109 53.4738H56.0109V45.4659H21.05V53.4738H33.55V89.2159H43.5109V53.4738Z" fill="black"/>
</svg>
